# xmcd
# 
# Track frame offsets:
#     150
#     19346
#     38636
#     61221
# 
# Disc length: 1027
# 
# Revision: 0
# Processed by: cddbd v1.5.2PL0 Copyright (c) Steve Scherf et al.
# Submitted via: fre:ac v1.0.17
# 
DISCID=2a040104
DTITLE=Resonator - Le Cinquieme Cavalier
DYEAR=2001
DGENRE=Electronic
TTITLE0=Le Cinquieme Cavalier
TTITLE1=One Eyed Elvis
TTITLE2=Pond
TTITLE3=Le Cinemique Cavalier
EXTD=
EXTT0=
EXTT1=
EXTT2=
EXTT3=
PLAYORDER=
